<?xml version="1.0" encoding="UTF-8"?>
<svg id="Layer_1" data-name="Layer 1" xmlns="http://www.w3.org/2000/svg" xmlns:xlink="http://www.w3.org/1999/xlink" viewBox="0 0 512 512">
  <defs>
    <style>
      .cls-1 {
        fill: url(#linear-gradient);
        stroke-width: 0px;
      }
    </style>
    <linearGradient id="linear-gradient" x1="0" y1="256" x2="512" y2="256" gradientUnits="userSpaceOnUse">
      <stop offset="0" stop-color="#779098"/>
      <stop offset=".11" stop-color="#608492"/>
      <stop offset=".26" stop-color="#48798b"/>
      <stop offset=".4" stop-color="#3a7288"/>
      <stop offset=".52" stop-color="#367087"/>
      <stop offset=".61" stop-color="#3b7288"/>
      <stop offset=".72" stop-color="#4c7a8c"/>
      <stop offset=".84" stop-color="#688894"/>
      <stop offset=".98" stop-color="#8e9a9e"/>
      <stop offset="1" stop-color="#959ea0"/>
    </linearGradient>
  </defs>
  <path class="cls-1" d="M256,0C114.62,0,0,114.62,0,256s114.62,256,256,256,256-114.62,256-256S397.38,0,256,0ZM175.27,80.79s18.59-13.8,54.5-8.11c8.19,1.3,16.05,3.64,23.5,6.69,12.12,4.95,37.07,14.47,49.56,14.33,0,0,36.6,3.46,54.9-27.51,0,0-2.49,48.49-51.1,51.88,0,0-19.28,2.46-57.99-14.67-8.6-3.81-17.74-6.81-27.31-8.52-10.2-1.82-23.1-2.92-35.84-.7,0,0-28.11,2.01-29.94,37.61,0,0-8.77-35.11,19.73-51ZM396.22,270.08h-7.46c-9.16-44.09-22.93-73.66-41.31-88.71-18.38-15.04-49.49-22.57-93.32-22.57h-23.94v203.51c0,19.23,3.6,33.3,10.79,42.19,7.19,8.9,26.17,13.35,56.91,13.35h10.6v7.65H115.78v-7.65c23.55,0,39.02-4.45,46.41-13.35,7.39-8.9,11.09-22.96,11.09-42.19v-147.58c0-19.23-3.7-33.3-11.09-42.19-7.39-8.9-22.86-13.34-46.41-13.34v-7.65h280.44v118.54Z"/>
</svg>